<svg width="29" height="29" viewBox="0 0 29 29" fill="none" xmlns="http://www.w3.org/2000/svg">
<circle cx="14.5" cy="14.5" r="14.5" fill="white"/>
<path d="M25.5388 14.2647C25.5388 13.3586 25.4655 12.6974 25.3068 12.0117H14.9893V16.1013H21.0454C20.9234 17.1176 20.264 18.6482 18.7988 19.6767L18.7782 19.8136L22.0405 22.3479L22.2665 22.3705C24.3421 20.4481 25.5388 17.6196 25.5388 14.2647Z" fill="#4285F4"/>
<path d="M14.9891 25.0402C17.9561 25.0402 20.4469 24.0606 22.2663 22.3709L18.7986 19.6771C17.8706 20.326 16.6252 20.7791 14.9891 20.7791C12.0831 20.7791 9.61666 18.8567 8.73745 16.1997L8.60857 16.2107L5.21648 18.8432L5.17212 18.9669C6.97919 22.5667 10.6911 25.0402 14.9891 25.0402Z" fill="#34A853"/>
<path d="M8.73747 16.1994C8.50548 15.5138 8.37122 14.779 8.37122 14.0199C8.37122 13.2607 8.50548 12.5261 8.72526 11.8404L8.71912 11.6944L5.28451 9.01953L5.17214 9.07313C4.42736 10.567 4 12.2445 4 14.0199C4 15.7954 4.42736 17.4728 5.17214 18.9666L8.73747 16.1994Z" fill="#FBBC05"/>
<path d="M14.9891 7.26103C17.0525 7.26103 18.4445 8.15487 19.2381 8.90183L22.3395 5.8652C20.4348 4.08976 17.9561 3 14.9891 3C10.6911 3 6.97919 5.47336 5.17212 9.07319L8.72524 11.8405C9.61666 9.18343 12.0831 7.26103 14.9891 7.26103Z" fill="#EB4335"/>
</svg>
