<svg width="73" height="19" viewBox="0 0 73 19" fill="none" xmlns="http://www.w3.org/2000/svg">
<g clip-path="url(#clip0)">
<path d="M15.2 9.2H8.80005V2.79995C8.80005 2.35845 8.4416 2 7.99995 2C7.55845 2 7.2 2.35845 7.2 2.79995V9.2H0.799951C0.358447 9.2 0 9.55845 0 9.99995C0 10.4416 0.358447 10.8 0.799951 10.8H7.2V17.2C7.2 17.6416 7.55845 18 7.99995 18C8.4416 18 8.80005 17.6416 8.80005 17.2V10.8H15.2C15.6416 10.8 16 10.4416 16 9.99995C16 9.55845 15.6416 9.2 15.2 9.2V9.2Z" fill="white"/>
</g>
<path d="M27.162 15H28.534V7.076L31.936 11.92H32.048L35.436 7.146V15H36.822V4.57H35.562L32.006 9.666L28.422 4.57H27.162V15ZM39.3906 18.08C39.8852 18.08 40.3052 17.982 40.6506 17.786C41.0052 17.59 41.3039 17.324 41.5466 16.988C41.7986 16.6613 42.0039 16.2973 42.1626 15.896L45.5646 7.454H44.1226L41.8406 13.348L39.5446 7.454H38.1306L41.1266 15.014L40.9026 15.56C40.6972 16.0267 40.4779 16.358 40.2446 16.554C40.0206 16.75 39.6892 16.848 39.2506 16.848C39.1012 16.848 38.9472 16.834 38.7886 16.806C38.6392 16.7873 38.5132 16.7687 38.4106 16.75V17.912C38.5599 17.9773 38.7186 18.0193 38.8866 18.038C39.0546 18.066 39.2226 18.08 39.3906 18.08ZM49.2968 15H55.2468V13.74H50.6688V4.57H49.2968V15ZM56.635 6.25H57.937V4.57H56.635V6.25ZM56.635 15H57.937V7.454H56.635V15ZM62.6592 15.168C63.2006 15.168 63.6766 15.0747 64.0872 14.888C64.4979 14.7013 64.8199 14.4447 65.0532 14.118C65.2866 13.782 65.4032 13.3993 65.4032 12.97C65.4032 12.4473 65.2306 11.9993 64.8852 11.626C64.5399 11.2527 64.0639 10.9773 63.4572 10.8L62.2252 10.436C62.0759 10.3893 61.9219 10.3333 61.7632 10.268C61.6046 10.1933 61.4692 10.0907 61.3572 9.96C61.2452 9.82 61.1892 9.64267 61.1892 9.428C61.1892 9.12933 61.3012 8.88667 61.5252 8.7C61.7586 8.51333 62.0619 8.42 62.4352 8.42C62.8459 8.42 63.2192 8.53667 63.5552 8.77C63.9006 8.994 64.1572 9.302 64.3252 9.694L65.3892 9.204C65.1652 8.59733 64.7872 8.126 64.2552 7.79C63.7326 7.454 63.1399 7.286 62.4772 7.286C61.9826 7.286 61.5346 7.37933 61.1332 7.566C60.7412 7.75267 60.4286 8.014 60.1952 8.35C59.9712 8.67667 59.8592 9.064 59.8592 9.512C59.8592 9.99733 60.0132 10.4267 60.3212 10.8C60.6386 11.164 61.1379 11.4393 61.8192 11.626L62.9532 11.948C63.1119 11.9853 63.2752 12.046 63.4432 12.13C63.6206 12.2047 63.7699 12.312 63.8912 12.452C64.0219 12.5827 64.0872 12.76 64.0872 12.984C64.0872 13.3013 63.9519 13.558 63.6812 13.754C63.4106 13.95 63.0699 14.048 62.6592 14.048C62.2019 14.048 61.7866 13.922 61.4132 13.67C61.0399 13.4087 60.7459 13.0493 60.5312 12.592L59.4952 13.096C59.7286 13.7307 60.1252 14.2347 60.6852 14.608C61.2452 14.9813 61.9032 15.168 62.6592 15.168ZM70.1736 15.084C70.2763 15.084 70.4023 15.0793 70.5516 15.07C70.7009 15.0607 70.8363 15.042 70.9576 15.014V13.852C70.8736 13.8613 70.7849 13.8707 70.6916 13.88C70.5983 13.8893 70.5143 13.894 70.4396 13.894C69.9823 13.894 69.6556 13.782 69.4596 13.558C69.2729 13.3247 69.1796 13.0167 69.1796 12.634V8.7H70.8736V7.454H69.1796V5.718H67.8776V6.334C67.8776 6.67933 67.7796 6.95467 67.5836 7.16C67.3876 7.356 67.1216 7.454 66.7856 7.454H66.5056V8.7H67.8776V12.676C67.8776 13.4413 68.0736 14.034 68.4656 14.454C68.8669 14.874 69.4363 15.084 70.1736 15.084Z" fill="white"/>
<defs>
<clipPath id="clip0">
<rect width="16" height="16" fill="white" transform="translate(0 2)"/>
</clipPath>
</defs>
</svg>
